<svg xmlns:xlink="http://www.w3.org/1999/xlink"  xmlns="http://www.w3.org/2000/svg" width="180" height="120" viewBox="0 0 180 120" fill="undefined" data-src="https://dashboard-cdn.rebrandly.com/styleguide-assets/spot-illustrations/ill-spot-contact.svg"><circle opacity="0.04" cx="63" cy="46.5" r="46.5" fill="#8355E1"></circle><circle opacity="0.06" cx="145.5" cy="48" r="18" fill="#8355E1"></circle><circle opacity="0.08" cx="84" cy="111" r="9" fill="#8355E1"></circle><path opacity="0.1" d="M115.375 76.1875C110.531 76.1875 105.881 75.4125 101.541 73.9787C100.185 73.5525 98.6737 73.8625 97.5887 74.9088L89.0638 83.4338C78.0975 77.8538 69.1075 68.9025 63.5275 57.9362L72.0525 49.3725C73.1375 48.3262 73.4475 46.815 73.0212 45.4587C71.5875 41.1187 70.8125 36.4688 70.8125 31.625C70.8125 29.4937 69.0688 27.75 66.9375 27.75H53.375C51.2437 27.75 49.5 29.4937 49.5 31.625C49.5 68.0112 78.9888 97.5 115.375 97.5C117.506 97.5 119.25 95.7563 119.25 93.625V80.0625C119.25 77.9312 117.506 76.1875 115.375 76.1875Z" fill="#212732"></path><path d="M116.875 74.6875C112.031 74.6875 107.381 73.9125 103.041 72.4787C101.685 72.0525 100.174 72.3625 99.0887 73.4088L90.5638 81.9338C79.5975 76.3538 70.6075 67.4025 65.0275 56.4362L73.5525 47.8725C74.6375 46.8262 74.9475 45.315 74.5212 43.9587C73.0875 39.6187 72.3125 34.9688 72.3125 30.125C72.3125 27.9937 70.5688 26.25 68.4375 26.25H54.875C52.7437 26.25 51 27.9937 51 30.125C51 66.5112 80.4888 96 116.875 96C119.006 96 120.75 94.2563 120.75 92.125V78.5625C120.75 76.4312 119.006 74.6875 116.875 74.6875Z" fill="#2C96DF"></path><path fill-rule="evenodd" clip-rule="evenodd" d="M88.5 29C88.5 24.5817 92.0817 21 96.5 21H125.5C129.918 21 133.5 24.5817 133.5 29V49C133.5 53.4183 129.918 57 125.5 57H100.396C98.5249 57 96.7126 57.6561 95.2749 58.8542L90.1402 63.1332C89.4889 63.676 88.5 63.2128 88.5 62.365V29Z" fill="#E8E9EA"></path><path fill-rule="evenodd" clip-rule="evenodd" d="M89.25 28.75C89.25 24.884 92.384 21.75 96.25 21.75H125.75C129.616 21.75 132.75 24.884 132.75 28.75V49.25C132.75 53.116 129.616 56.25 125.75 56.25H100.356C98.509 56.25 96.7191 56.8889 95.2898 58.0583L90.0666 62.3319C89.7402 62.599 89.25 62.3667 89.25 61.9449V28.75Z" fill="white"></path><rect x="97.5" y="43.5" width="27" height="3" rx="1.5" fill="#2C96DF"></rect><rect x="97.5" y="37.5" width="27" height="3" rx="1.5" fill="#2C96DF"></rect><rect x="97.5" y="31.5" width="27" height="3" rx="1.5" fill="#2C96DF"></rect></svg>