<svg xmlns="http://www.w3.org/2000/svg" xmlns:xlink="http://www.w3.org/1999/xlink" width="16" height="16" viewBox="0 0 16 16" version="1.1">
    <!-- Generator: Sketch 53.2 (72643) - https://sketchapp.com -->
    <title>Artboard</title>
    <desc>Created with Sketch.</desc>
    <g id="Artboard" stroke="none" stroke-width="1" fill="none" fill-rule="evenodd">
        <g id="star-half" fill="#87CFDA" fill-rule="nonzero">
            <path d="M0.0418949,5.94345 C0.144135,5.65171 0.41921,5.45561 0.728388,5.45561 L5.45487,5.45561 L7.31903,0.474016 C7.4254,0.189777 7.6972,0.00195312 8.00055,0.00195312 C8.3039,0.00195312 8.57564,0.189777 8.68122,0.474016 L10.5454,5.45561 L15.2726,5.45561 C15.5818,5.45561 15.8569,5.65089 15.9591,5.94345 C16.0614,6.23518 15.9675,6.55928 15.7256,6.75211 L11.9167,9.78229 L13.6653,14.911 C13.7633,15.1985 13.672,15.5177 13.4359,15.7097 C13.2007,15.9017 12.8699,15.9266 12.6073,15.772 L8.00464,13.0576 L3.27152,15.8967 C3.15602,15.9665 3.02635,16.0005 2.89754,16.0005 C2.89672,16.0005 2.89505,16.0005 2.89338,16.0005 C2.4928,15.9872 2.16287,15.6756 2.16287,15.2733 C2.16287,15.152 2.19196,15.0373 2.24515,14.9367 L4.07936,9.7781 L0.275438,6.75205 C0.0336132,6.56007 -0.0603142,6.23512 0.0418949,5.94338 L0.0418949,5.94345 Z" id="Path"/>
        </g>
        <g id="Untitled-1" transform="translate(7.000000, 0.000000)" fill="#E6E6E6" fill-rule="nonzero">
            <path d="M1,7.49976 C1,6.99976 1,7.49976 1,6.99976 L1.00055,5.9432 L1,0.499756 C1,-0.000244141 1,0.499756 1.00055,0.00170898 C1.3039,0.00170898 1.57564,0.189533 1.68122,0.473771 L3.54538,5.45536 L8.27264,5.45536 C8.58182,5.45536 8.8569,5.65065 8.95914,5.9432 C9.06138,6.23493 8.96745,6.55904 8.72559,6.75187 L4.91666,9.78205 L6.6653,14.9107 C6.76335,15.1983 6.67197,15.5175 6.43591,15.7094 C6.2007,15.9014 5.86992,15.9264 5.60728,15.7717 L1.00464,13.0574 L1,12.4998 C1,11.9998 1,11.9998 1,11.9998 C0.999789,11.4276 1,11.902 1,11.4998 C1,10.6432 0.917723,11.3364 1,10.9998 L1.00464,9.99976 L1,7.99976 C1,7.49976 1,7.99976 1,7.49976 Z" id="Path"/>
        </g>
    </g>
</svg>