<svg xmlns="http://www.w3.org/2000/svg" xmlns:xlink="http://www.w3.org/1999/xlink" width="240" height="160" viewBox="0 0 240 160" version="1.1" class="injected-svg SpotIllustration--sm" data-src="https://web.archive.org/web/20250621150308/https://dashboard-cdn.rebrandly.com/styleguide-assets/spot-illustrations/ill-spot-sliders-white.svg" fill="undefined">
    <g id="Symbols" stroke="none" stroke-width="1" fill="none" fill-rule="evenodd">
        <g id="illustrations/ill-spot-sliders-white" fill="none">
            <g fill="none">
                <rect id="container" x="0" y="0" width="240" height="160" fill="none"></rect>
                <g id="illustrations/bg-dots-white" transform="translate(22.000000, 0.000000)" fill="#FFFFFF">
                    <g id="illustrations/bg-dots" fill="#FFFFFF">
                        <circle id="Oval-11" opacity="0.0399999991" cx="62" cy="62" r="62" fill="#FFFFFF"></circle>
                        <circle id="Oval-11" opacity="0.0599999987" cx="172" cy="64" r="24" fill="#FFFFFF"></circle>
                        <circle id="Oval-11" opacity="0.0800000057" cx="90" cy="148" r="12" fill="#FFFFFF"></circle>
                    </g>
                </g>
                <g id="illustration" transform="translate(56.000000, 22.000000)" fill="none">
                    <path d="M41.9945734,88.6666667 L98.6666667,88.6666667 C100.139426,88.6666667 101.333333,89.860574 101.333333,91.3333333 L101.333333,96.6666667 C101.333333,98.139426 100.139426,99.3333333 98.6666667,99.3333333 L41.9945734,99.3333333 C39.6263452,108.534545 31.2738103,115.333333 21.3333333,115.333333 C9.55125867,115.333333 0,105.782075 0,94 C0,82.2179253 9.55125867,72.6666667 21.3333333,72.6666667 C31.2738103,72.6666667 39.6263452,79.4654549 41.9945734,88.6666667 Z M83.3387599,54 C85.7069882,44.7987882 94.059523,38 104,38 C115.782075,38 125.333333,47.5512587 125.333333,59.3333333 C125.333333,71.115408 115.782075,80.6666667 104,80.6666667 C94.059523,80.6666667 85.7069882,73.8678785 83.3387599,64.6666667 L37.3333333,64.6666667 C35.860574,64.6666667 34.6666667,63.4727593 34.6666667,62 L34.6666667,56.6666667 C34.6666667,55.1939073 35.860574,54 37.3333333,54 L83.3387599,54 Z M41.9945734,19.3333333 L98.6666667,19.3333333 C100.139426,19.3333333 101.333333,20.5272407 101.333333,22 L101.333333,27.3333333 C101.333333,28.8060927 100.139426,30 98.6666667,30 L41.9945734,30 C39.6263452,39.2012118 31.2738103,46 21.3333333,46 C9.55125867,46 0,36.4487413 0,24.6666667 C0,12.884592 9.55125867,3.33333333 21.3333333,3.33333333 C31.2738103,3.33333333 39.6263452,10.1321215 41.9945734,19.3333333 Z M21.3333333,35.3333333 C27.2243707,35.3333333 32,30.557704 32,24.6666667 C32,18.7756293 27.2243707,14 21.3333333,14 C15.442296,14 10.6666667,18.7756293 10.6666667,24.6666667 C10.6666667,30.557704 15.442296,35.3333333 21.3333333,35.3333333 Z M104,70 C109.891037,70 114.666667,65.2243707 114.666667,59.3333333 C114.666667,53.442296 109.891037,48.6666667 104,48.6666667 C98.1089627,48.6666667 93.3333333,53.442296 93.3333333,59.3333333 C93.3333333,65.2243707 98.1089627,70 104,70 Z M21.3333333,104.666667 C27.2243707,104.666667 32,99.8910373 32,94 C32,88.1089627 27.2243707,83.3333333 21.3333333,83.3333333 C15.442296,83.3333333 10.6666667,88.1089627 10.6666667,94 C10.6666667,99.8910373 15.442296,104.666667 21.3333333,104.666667 Z" id="Combined-Shape-1" fill="#212732" opacity="0.1"></path>
                    <path d="M86.0054266,51.3333333 C88.3736548,42.1321215 96.7261897,35.3333333 106.666667,35.3333333 C118.448741,35.3333333 128,44.884592 128,56.6666667 C128,68.4487413 118.448741,78 106.666667,78 C96.7261897,78 88.3736548,71.2012118 86.0054266,62 L42.6666667,62 C39.721148,62 37.3333333,59.6121853 37.3333333,56.6666667 C37.3333333,53.721148 39.721148,51.3333333 42.6666667,51.3333333 L86.0054266,51.3333333 Z M106.666667,67.3333333 C112.557704,67.3333333 117.333333,62.557704 117.333333,56.6666667 C117.333333,50.7756293 112.557704,46 106.666667,46 C100.775629,46 96,50.7756293 96,56.6666667 C96,62.557704 100.775629,67.3333333 106.666667,67.3333333 Z" id="Combined-Shape-2" fill="#FFFFFF"></path>
                    <path d="M44.6612401,16.6666667 L98.6666667,16.6666667 C101.612185,16.6666667 104,19.0544813 104,22 C104,24.9455187 101.612185,27.3333333 98.6666667,27.3333333 L44.6612401,27.3333333 C42.2930118,36.5345451 33.940477,43.3333333 24,43.3333333 C12.2179253,43.3333333 2.66666667,33.7820747 2.66666667,22 C2.66666667,10.2179253 12.2179253,0.666666667 24,0.666666667 C33.940477,0.666666667 42.2930118,7.46545487 44.6612401,16.6666667 Z M24,32.6666667 C29.8910373,32.6666667 34.6666667,27.8910373 34.6666667,22 C34.6666667,16.1089627 29.8910373,11.3333333 24,11.3333333 C18.1089627,11.3333333 13.3333333,16.1089627 13.3333333,22 C13.3333333,27.8910373 18.1089627,32.6666667 24,32.6666667 Z" id="Combined-Shape-3" fill="#FFFFFF" opacity="0.649999976"></path>
                    <path d="M44.6612401,86 L98.6666667,86 C101.612185,86 104,88.3878147 104,91.3333333 C104,94.278852 101.612185,96.6666667 98.6666667,96.6666667 L44.6612401,96.6666667 C42.2930118,105.867878 33.940477,112.666667 24,112.666667 C12.2179253,112.666667 2.66666667,103.115408 2.66666667,91.3333333 C2.66666667,79.5512587 12.2179253,70 24,70 C33.940477,70 42.2930118,76.7987882 44.6612401,86 Z M24,102 C29.8910373,102 34.6666667,97.2243707 34.6666667,91.3333333 C34.6666667,85.442296 29.8910373,80.6666667 24,80.6666667 C18.1089627,80.6666667 13.3333333,85.442296 13.3333333,91.3333333 C13.3333333,97.2243707 18.1089627,102 24,102 Z" id="Combined-Shape-4" fill="#FFFFFF" opacity="0.849999964"></path>
                </g>
            </g>
        </g>
    </g>
</svg>