<svg xmlns:xlink="http://www.w3.org/1999/xlink" xmlns="http://www.w3.org/2000/svg" width="16" height="16" viewBox="0 0 16 16" fill="none">
<path d="M15.9581 5.94345C15.8559 5.65171 15.5808 5.45561 15.2716 5.45561H10.5451L8.68097 0.474016C8.5746 0.189777 8.3028 0.00195312 7.99945 0.00195312C7.6961 0.00195312 7.42436 0.189777 7.31878 0.474016L5.45462 5.45561H0.727355C0.418178 5.45561 0.143103 5.65089 0.0408623 5.94345C-0.061378 6.23518 0.0325496 6.55928 0.274406 6.75211L4.08334 9.78229L2.3347 14.911C2.23665 15.1985 2.32803 15.5177 2.56409 15.7097C2.7993 15.9017 3.13008 15.9266 3.39272 15.772L7.99536 13.0576L12.7285 15.8967C12.844 15.9665 12.9736 16.0005 13.1025 16.0005C13.1033 16.0005 13.1049 16.0005 13.1066 16.0005C13.5072 15.9872 13.8371 15.6756 13.8371 15.2733C13.8371 15.152 13.808 15.0373 13.7549 14.9367L11.9206 9.7781L15.7246 6.75205C15.9664 6.56007 16.0603 6.23512 15.9581 5.94338V5.94345Z" fill="#87CFDA"/>
</svg>